<svg width="75" height="42" viewBox="0 0 75 42" fill="none" xmlns="http://www.w3.org/2000/svg">
<g clip-path="url(#clip0_1_9)">
<path d="M65 42H10C4.47715 42 0 37.5229 0 32V10C0 4.47715 4.47715 0 10 0H15.9502C20.8836 0 25.3937 2.78736 27.6 7.2C29.0709 10.1418 32.0776 12 35.3666 12H65C70.5229 12 75 16.4772 75 22V32C75 37.5229 70.5229 42 65 42Z" fill="#525252"/>
<path d="M12.9574 35.1591C12.321 35.1591 11.7592 34.9983 11.272 34.6768C10.7848 34.352 10.4036 33.8946 10.1286 33.3047C9.85346 32.7114 9.71591 32.0104 9.71591 31.2017C9.71591 30.3996 9.85346 29.7036 10.1286 29.1136C10.4036 28.5237 10.7865 28.0679 11.277 27.7464C11.7675 27.425 12.3343 27.2642 12.9773 27.2642C13.4744 27.2642 13.8672 27.3471 14.1555 27.5128C14.4472 27.6752 14.6693 27.8608 14.8217 28.0696C14.9775 28.2751 15.0985 28.4441 15.1847 28.5767H15.2841V24.8182H16.4574V35H15.3239V33.8267H15.1847C15.0985 33.9659 14.9759 34.1416 14.8168 34.3537C14.6577 34.5625 14.4306 34.7498 14.1357 34.9155C13.8407 35.0779 13.4479 35.1591 12.9574 35.1591ZM13.1165 34.1051C13.5871 34.1051 13.9848 33.9825 14.3097 33.7372C14.6345 33.4886 14.8814 33.1456 15.0504 32.7081C15.2195 32.2673 15.304 31.7585 15.304 31.1818C15.304 30.6117 15.2211 30.1129 15.0554 29.6854C14.8897 29.2545 14.6444 28.9197 14.3196 28.6811C13.9948 28.4392 13.5938 28.3182 13.1165 28.3182C12.6193 28.3182 12.205 28.4458 11.8736 28.701C11.5455 28.9529 11.2985 29.2959 11.1328 29.7301C10.9704 30.161 10.8892 30.6449 10.8892 31.1818C10.8892 31.7254 10.9721 32.2192 11.1378 32.6634C11.3068 33.1042 11.5554 33.4555 11.8835 33.7173C12.215 33.9759 12.6259 34.1051 13.1165 34.1051ZM21.8714 35.1591C21.1821 35.1591 20.5772 34.995 20.0568 34.6669C19.5398 34.3388 19.1354 33.8797 18.8438 33.2898C18.5554 32.6998 18.4112 32.0104 18.4112 31.2216C18.4112 30.4261 18.5554 29.7318 18.8438 29.1385C19.1354 28.5452 19.5398 28.0845 20.0568 27.7564C20.5772 27.4283 21.1821 27.2642 21.8714 27.2642C22.5608 27.2642 23.1641 27.4283 23.6811 27.7564C24.2015 28.0845 24.6058 28.5452 24.8942 29.1385C25.1858 29.7318 25.3317 30.4261 25.3317 31.2216C25.3317 32.0104 25.1858 32.6998 24.8942 33.2898C24.6058 33.8797 24.2015 34.3388 23.6811 34.6669C23.1641 34.995 22.5608 35.1591 21.8714 35.1591ZM21.8714 34.1051C22.3951 34.1051 22.826 33.9709 23.1641 33.7024C23.5021 33.4339 23.7524 33.081 23.9148 32.6435C24.0772 32.206 24.1584 31.732 24.1584 31.2216C24.1584 30.7112 24.0772 30.2356 23.9148 29.7947C23.7524 29.3539 23.5021 28.9976 23.1641 28.7259C22.826 28.4541 22.3951 28.3182 21.8714 28.3182C21.3478 28.3182 20.9169 28.4541 20.5788 28.7259C20.2408 28.9976 19.9905 29.3539 19.8281 29.7947C19.6657 30.2356 19.5845 30.7112 19.5845 31.2216C19.5845 31.732 19.6657 32.206 19.8281 32.6435C19.9905 33.081 20.2408 33.4339 20.5788 33.7024C20.9169 33.9709 21.3478 34.1051 21.8714 34.1051ZM30.225 35.1591C29.5091 35.1591 28.8926 34.9901 28.3755 34.652C27.8585 34.3139 27.4608 33.8482 27.1824 33.255C26.9039 32.6617 26.7647 31.9839 26.7647 31.2216C26.7647 30.446 26.9073 29.7616 27.1923 29.1683C27.4806 28.5717 27.8817 28.1061 28.3954 27.7713C28.9125 27.4332 29.5157 27.2642 30.2051 27.2642C30.742 27.2642 31.2259 27.3636 31.6568 27.5625C32.0877 27.7614 32.4406 28.0398 32.7157 28.3977C32.9908 28.7557 33.1615 29.1733 33.2278 29.6506H32.0545C31.965 29.3026 31.7662 28.9943 31.4579 28.7259C31.153 28.4541 30.742 28.3182 30.225 28.3182C29.7676 28.3182 29.3665 28.4375 29.0218 28.6761C28.6805 28.9115 28.4136 29.2446 28.2214 29.6754C28.0325 30.103 27.938 30.6051 27.938 31.1818C27.938 31.7718 28.0308 32.2855 28.2164 32.723C28.4054 33.1605 28.6705 33.5002 29.0119 33.7422C29.3566 33.9841 29.7609 34.1051 30.225 34.1051C30.5299 34.1051 30.8066 34.0521 31.0552 33.946C31.3038 33.84 31.5143 33.6875 31.6866 33.4886C31.859 33.2898 31.9816 33.0511 32.0545 32.7727H33.2278C33.1615 33.2235 32.9975 33.6295 32.7356 33.9908C32.4771 34.3487 32.1341 34.6338 31.7065 34.8459C31.2823 35.0547 30.7884 35.1591 30.225 35.1591ZM39.7555 31.8778V27.3636H40.9288V35H39.7555V33.7074H39.676C39.497 34.0952 39.2186 34.425 38.8407 34.6967C38.4629 34.9652 37.9856 35.0994 37.4089 35.0994C36.9316 35.0994 36.5074 34.995 36.1362 34.7862C35.765 34.5741 35.4733 34.2559 35.2612 33.8317C35.0491 33.4041 34.943 32.8655 34.943 32.2159V27.3636H36.1163V32.1364C36.1163 32.6932 36.2721 33.1373 36.5836 33.4688C36.8985 33.8002 37.2995 33.9659 37.7868 33.9659C38.0784 33.9659 38.3751 33.8913 38.6767 33.7422C38.9816 33.593 39.2368 33.3643 39.4423 33.0561C39.6511 32.7479 39.7555 32.3551 39.7555 31.8778ZM43.0778 35V27.3636H44.2113V28.5568H44.3107C44.4698 28.1491 44.7267 27.8326 45.0813 27.6072C45.436 27.3786 45.8619 27.2642 46.359 27.2642C46.8628 27.2642 47.2821 27.3786 47.6168 27.6072C47.9549 27.8326 48.2184 28.1491 48.4073 28.5568H48.4869C48.6824 28.1624 48.9757 27.8492 49.3668 27.6172C49.7579 27.3819 50.2269 27.2642 50.7738 27.2642C51.4566 27.2642 52.015 27.478 52.4492 27.9055C52.8834 28.3298 53.1005 28.991 53.1005 29.8892V35H51.9272V29.8892C51.9272 29.3258 51.7731 28.9231 51.4648 28.6811C51.1566 28.4392 50.7937 28.3182 50.3761 28.3182C49.8391 28.3182 49.4232 28.4806 49.1282 28.8054C48.8332 29.1269 48.6857 29.5346 48.6857 30.0284V35H47.4925V29.7699C47.4925 29.3357 47.3517 28.986 47.07 28.7209C46.7882 28.4524 46.4253 28.3182 45.9812 28.3182C45.6763 28.3182 45.3912 28.3994 45.1261 28.5618C44.8642 28.7242 44.6521 28.9496 44.4897 29.2379C44.3306 29.523 44.2511 29.8527 44.2511 30.2273V35H43.0778ZM57.4929 35.179C57.009 35.179 56.5698 35.0878 56.1754 34.9055C55.781 34.7199 55.4678 34.4531 55.2358 34.1051C55.0038 33.7538 54.8878 33.3295 54.8878 32.8324C54.8878 32.3949 54.974 32.0402 55.1463 31.7685C55.3187 31.4934 55.549 31.2779 55.8374 31.1222C56.1257 30.9664 56.4439 30.8504 56.7919 30.7741C57.1432 30.6946 57.4962 30.6316 57.8509 30.5852C58.3149 30.5256 58.6911 30.4808 58.9794 30.451C59.2711 30.4179 59.4832 30.3632 59.6158 30.2869C59.7517 30.2107 59.8196 30.0781 59.8196 29.8892V29.8494C59.8196 29.3589 59.6854 28.9777 59.4169 28.706C59.1518 28.4342 58.7491 28.2983 58.2088 28.2983C57.6487 28.2983 57.2095 28.4209 56.8913 28.6662C56.5732 28.9115 56.3494 29.1733 56.2202 29.4517L55.1065 29.054C55.3054 28.59 55.5705 28.2287 55.902 27.9702C56.2367 27.7083 56.6013 27.526 56.9957 27.4233C57.3935 27.3172 57.7846 27.2642 58.169 27.2642C58.4143 27.2642 58.696 27.294 59.0142 27.3537C59.3357 27.41 59.6456 27.5277 59.9439 27.7067C60.2455 27.8857 60.4957 28.1558 60.6946 28.517C60.8935 28.8783 60.9929 29.3622 60.9929 29.9688V35H59.8196V33.9659H59.7599C59.6804 34.1316 59.5478 34.3089 59.3622 34.4979C59.1766 34.6868 58.9297 34.8475 58.6214 34.9801C58.3132 35.1127 57.937 35.179 57.4929 35.179ZM57.6719 34.125C58.1359 34.125 58.527 34.0339 58.8452 33.8516C59.1667 33.6693 59.4086 33.4339 59.571 33.1456C59.7367 32.8572 59.8196 32.554 59.8196 32.2358V31.1619C59.7699 31.2216 59.6605 31.2763 59.4915 31.326C59.3258 31.3724 59.1335 31.4138 58.9148 31.4503C58.6993 31.4834 58.4889 31.5133 58.2834 31.5398C58.0812 31.563 57.9171 31.5829 57.7912 31.5994C57.4863 31.6392 57.2012 31.7038 56.9361 31.7933C56.6742 31.8795 56.4621 32.0104 56.2997 32.1861C56.1406 32.3584 56.0611 32.5937 56.0611 32.892C56.0611 33.2997 56.2119 33.608 56.5135 33.8168C56.8184 34.0223 57.2045 34.125 57.6719 34.125ZM63.9895 35.0795C63.7443 35.0795 63.5338 34.9917 63.3581 34.8161C63.1825 34.6404 63.0946 34.4299 63.0946 34.1847C63.0946 33.9394 63.1825 33.7289 63.3581 33.5533C63.5338 33.3776 63.7443 33.2898 63.9895 33.2898C64.2348 33.2898 64.4453 33.3776 64.6209 33.5533C64.7966 33.7289 64.8844 33.9394 64.8844 34.1847C64.8844 34.3471 64.843 34.4962 64.7601 34.6321C64.6806 34.768 64.5729 34.8774 64.437 34.9602C64.3044 35.0398 64.1552 35.0795 63.9895 35.0795Z" fill="white"/>
</g>
<defs>
<clipPath id="clip0_1_9">
<rect width="75" height="42" fill="white"/>
</clipPath>
</defs>
</svg>
